Coordinates
version=1
nRows=4
nColumns=63
inDegrees=yes

Units are S.I. units (second, meters, Newtons, ...)
If the header above contains a line with 'inDegrees', this indicates whether rotational values are in degrees (yes) or radians (no).

endheader
time	pelvis_tilt	pelvis_list	pelvis_rotation	pelvis_tx	pelvis_ty	pelvis_tz	hip_flexion_r	hip_adduction_r	hip_rotation_r	knee_angle_r	knee_angle_r_beta	ankle_angle_r	subtalar_angle_r	mtp_angle_r	hip_flexion_l	hip_adduction_l	hip_rotation_l	knee_angle_l	knee_angle_l_beta	ankle_angle_l	subtalar_angle_l	mtp_angle_l	L5_S1_Flex_Ext	L5_S1_Lat_Bending	L5_S1_axial_rotation	L4_L5_Flex_Ext	L4_L5_Lat_Bending	L4_L5_axial_rotation	L3_L4_Flex_Ext	L3_L4_Lat_Bending	L3_L4_axial_rotation	L2_L3_Flex_Ext	L2_L3_Lat_Bending	L2_L3_axial_rotation	L1_L2_Flex_Ext	L1_L2_Lat_Bending	L1_L2_axial_rotation	L1_T12_Flex_Ext	L1_T12_Lat_Bending	L1_T12_axial_rotation	Abs_r3	Abs_r2	Abs_r1	Abs_t1	Abs_t2	neck_flexion	neck_bending	neck_rotation	arm_flex_r	arm_add_r	arm_rot_r	elbow_flex_r	pro_sup_r	wrist_flex_r	wrist_dev_r	arm_flex_l	arm_add_l	arm_rot_l	elbow_flex_l	pro_sup_l	wrist_flex_l	wrist_dev_l
      1.51785714	     -3.35611132	      4.85550878	     91.61711109	      0.07644034	      0.93182763	      0.55831582	     -3.96358960	     -0.36653313	      2.14892749	     14.27280122	      0.24910737	     33.77235329	     -1.29157645	      0.00000000	    -10.21531879	      3.64988142	     -1.96583885	      1.39719649	      0.02438568	     32.85191455	     -6.62238277	      0.00000000	      0.07233222	     -0.12310766	      0.10769798	      0.13432817	     -0.16373319	      0.11442910	      0.11883461	     -0.29932396	      0.11442910	      0.08266850	     -0.29932396	      0.09423573	      0.06716770	     -0.25104114	      0.08750461	      0.04133063	     -0.19069376	      0.08077348	      0.51666182	     -1.39261846	      0.59898384	      0.00000000	      0.00000000	      2.23816495	     -0.62188397	      3.15527591	    -70.76341934	    -73.45946712	   -122.86335148	    100.13276334	     74.31458470	      1.71795773	      6.25252035	    -18.60918421	    -76.86750821	    -52.32564240	    107.59259084	     87.31970028	    -10.54062143	     15.13862544
      1.53571429	     -3.21262599	      5.35104774	     91.05415159	      0.07674199	      0.93303066	      0.55570042	     -4.71439943	     -0.28488802	      2.65525514	     13.90442750	      0.24267804	     34.09412314	     -0.77813136	      0.00000000	    -11.09943218	      3.62924240	     -1.90746438	      1.12620970	      0.01965607	     32.57029191	     -7.60385317	      0.00000000	      0.04457592	     -0.05748127	      0.17451563	      0.08278194	     -0.07645009	      0.18542286	      0.07323378	     -0.13975996	      0.18542286	      0.05094582	     -0.13975996	      0.15270118	      0.04139320	     -0.11721581	      0.14179395	      0.02547068	     -0.08903849	      0.13088672	      0.31840135	     -0.65023963	      0.97060359	      0.00000000	      0.00000000	      2.63746753	     -1.49208871	      4.85814352	    -89.94918693	    -74.70725373	   -147.70594482	    102.58939012	     74.07346509	      1.50031406	      2.50193093	     -8.78834622	    -80.87285326	    -48.70271943	    107.81551481	     86.42894067	     -9.66656376	     12.41372236
      1.55357143	     -3.07842254	      5.81008116	     90.76522329	      0.07664408	      0.93428368	      0.55300926	     -5.56424495	     -0.16855157	      3.26578479	     13.26330390	      0.23148832	     34.26804300	     -0.63488350	      0.00000000	    -11.87895287	      3.56286925	     -2.42793372	      0.95009180	      0.01658223	     32.69256265	     -7.35268035	      0.00000000	      0.02614044	     -0.01309068	      0.03226817	      0.04854542	     -0.01741060	      0.03428493	      0.04294613	     -0.03182867	      0.03428493	      0.02987591	     -0.03182867	      0.02823465	      0.02427402	     -0.02669451	      0.02621789	      0.01493665	     -0.02027746	      0.02420113	      0.18671857	     -0.14808435	      0.17946587	      0.00000000	      0.00000000	      2.61583582	     -1.92801725	      6.38085373	   -111.86750176	    -75.90194808	   -175.01400282	    103.85916162	     74.41742376	      0.90528082	      0.66612880	     -3.88806845	    -84.50452802	    -50.04712999	    108.17459042	     82.98691776	     -8.42096756	      7.87176046
      1.57142857	     -2.97923456	      6.24697410	     90.62779031	      0.07625030	      0.93539588	      0.55040345	     -6.41174454	     -0.12838720	      3.34812475	     12.57261194	      0.21943347	     34.49484522	      0.09555174	      0.00000000	    -12.58811071	      3.51707280	     -2.23600125	      0.79256398	      0.01383285	     32.79933309	     -7.72794491	      0.00000000	      0.00787759	      0.01340403	     -0.14261254	      0.01462948	      0.01782736	     -0.15152582	      0.01294210	      0.03259056	     -0.15152582	      0.00900330	      0.03259056	     -0.12478597	      0.00731513	      0.02733350	     -0.11587269	      0.00450126	      0.02076284	     -0.10695940	      0.05626885	      0.15162907	     -0.79316815	      0.00000000	      0.00000000	      2.30997406	     -2.09216355	      7.19637752	   -134.86447949	    -75.74725127	   -203.08788545	    104.36186168	     74.44740723	      0.05394798	     -0.21421326	     -3.14741462	    -88.33588816	    -54.87969738	    108.26230835	     74.96235611	     -6.69196847	      2.01745298
